<svg width="194" height="216" viewBox="0 0 194 216" fill="none" xmlns="http://www.w3.org/2000/svg">
<path d="M10.4553 109.113L123.175 5C133.557 5 144.54 8.81399 154.493 14.9636M10.4553 109.113L8.22766 159.057M10.4553 109.113C24.5983 108.03 40.6128 112 55.6197 119.381M108.472 175.408L188 57.7241C186.339 50.1124 182.454 42.4419 177.099 35.3986M108.472 175.408L57.2362 192.204M108.472 175.408C105.215 164.2 98.3707 153.453 89.3805 143.991M8.22766 159.057L6 209L57.2362 192.204M8.22766 159.057C8.22766 159.057 23.0124 161.687 35.4051 170.069C47.7979 178.451 57.2362 192.204 57.2362 192.204M89.3805 143.991L177.099 35.3986M89.3805 143.991C79.9386 134.053 68.1292 125.532 55.6197 119.381M177.099 35.3986C171.068 27.4644 163.172 20.326 154.493 14.9636M55.6197 119.381L154.493 14.9636" stroke="#DDE5B6" stroke-width="10"/>
</svg>
