<svg width="203" height="201" viewBox="0 0 203 201" fill="none" xmlns="http://www.w3.org/2000/svg">
<path d="M146.392 107.123C140.766 97.8536 121.218 86.3839 105.322 97.7073M36.8834 82.299C46.6385 75.7003 65.834 78.2141 73.0787 92.1097M129.4 139.561C111.463 184.107 32.7925 162.74 38.8751 115.596C38.8751 115.596 56.0789 123.95 80.624 130.448C105.169 136.946 129.4 139.561 129.4 139.561ZM5.37968 95.4246C0.289805 153.828 47.1369 195.287 100.107 195.988C153.078 196.69 189.177 166.015 197.091 112.084C205.005 58.1527 160.005 9.70183 109.972 5.3541C59.9389 1.00637 10.4696 37.0216 5.37968 95.4246Z" stroke="#F9D689" stroke-width="10"/>
</svg>
