<svg width="231" height="274" viewBox="0 0 231 274" fill="none" xmlns="http://www.w3.org/2000/svg">
<path d="M113.695 60.8833L102.144 1M134.39 45.0106L141.85 14.9487M134.39 195.32L150.273 273M113.695 219.129L108.642 251.596M182.037 100.737L228 76.756M54.9786 100.737L3 68.0981M32.3583 112.83H7.81283M66.5294 172.714L22.0107 209.99M187.091 160.792L222.465 178.743M120.498 100.737L157.713 68.0981L146.614 119.014L191.663 131.743L146.614 144.473L157.713 178.743L124.089 160.792L91.4447 205.18L95.362 152.306L32.3583 141.209L85.7807 119.014L75.4489 70.7092L120.498 100.737Z" stroke="#DDBEA9" stroke-width="10"/>
</svg>
