<svg width="165" height="165" viewBox="0 0 165 165" fill="none" xmlns="http://www.w3.org/2000/svg">
<path d="M109.88 45.2897L114.935 64.6696M58.5773 61.3546L67.4226 81.4994M159.695 78.3813C163.783 125.776 126.159 159.421 83.6185 159.99C41.0775 160.56 12.0859 135.667 5.72993 91.9005C-0.626027 48.1344 35.5145 8.81562 75.6962 5.28736C115.878 1.7591 155.607 30.9861 159.695 78.3813ZM87.2923 118.479C82.3632 106.886 87.9356 95.5428 97.41 92.1316C106.884 88.7204 115.482 92.7472 120.612 103.255C125.741 113.762 120.981 126.417 112.286 130.39C103.59 134.363 92.2213 130.073 87.2923 118.479Z" stroke="#FF7F3E" stroke-width="10"/>
</svg>
